<?xml version="1.0" encoding="utf-8"?>
<!-- Generator: Adobe Illustrator 23.0.1, SVG Export Plug-In . SVG Version: 6.00 Build 0)  -->
<svg version="1.1" xmlns="http://www.w3.org/2000/svg" xmlns:xlink="http://www.w3.org/1999/xlink" x="0px" y="0px"
	 viewBox="0 0 1052.5 523.6" style="enable-background:new 0 0 1052.5 523.6;" xml:space="preserve">
<style type="text/css">
	.st0{fill:none;stroke:#4D258F;stroke-width:6.5009;stroke-linecap:round;stroke-miterlimit:10;}
	.st1{fill:none;stroke:#000000;stroke-width:6.5009;stroke-linecap:round;stroke-miterlimit:10;}
	.st2{fill:none;stroke:#8F253B;stroke-width:8.5877;stroke-miterlimit:10;}
	.st3{fill:#4D258F;}
	.st4{font-family:'PalatinoLinotype-Italic';}
	.st5{font-size:87.5948px;}
	.st6{letter-spacing:-3;}
	.st7{letter-spacing:-1.7;}
	.st8{font-size:58.5815px;}
	.st9{letter-spacing:-2;}
</style>
<g id="delay">
	<polyline class="st0" points="3.3,107.3 455.1,107.3 405.7,86.5 426.5,107.3 	"/>
	<line class="st0" x1="213.2" y1="107.9" x2="213.2" y2="189.7"/>
	<path class="st0" d="M213.2,314.3v93.5c0,13.6,11,24.5,24.5,24.5h219.9l-45.5-19.5l18.2,19.5"/>
	<path class="st0" d="M654,412.8h190.2c10.6,0,19.2-8.6,19.2-19.2V226.9L849,260.7l11.7-9.1"/>
	<line class="st0" x1="654" y1="107.3" x2="759.3" y2="107.3"/>
	<line class="st0" x1="963.4" y1="107.3" x2="1049.3" y2="107.3"/>
	<path class="st1" d="M863.3,210.6"/>
	<polygon class="st2" points="474.6,325.2 474.6,516.2 654.4,412.7 	"/>
	<polygon class="st2" points="473.6,18.2 473.6,209.2 653.5,105.7 	"/>
	<circle class="st2" cx="861" cy="107.8" r="101.9"/>
	<path class="st2" d="M318.6,314.3H107c-4.4,0-8-3.6-8-8V197.7c0-4.4,3.6-8,8-8h211.6c4.4,0,8,3.6,8,8v108.6
		C326.6,310.7,323,314.3,318.6,314.3z"/>
</g>
<g id="Text">
	<text transform="matrix(1 0 0 1 173.7256 278.9736)" class="st3 st4 st5 st6">z</text>
	<text transform="matrix(0.583 0 0 0.583 209.5386 249.8047)" class="st3 st4 st5 st7">-1</text>
	<text transform="matrix(1 0 0 1 418.3022 368.8037)" class="st3 st4 st8 st9">a</text>
	<text transform="matrix(0.583 0 0 0.583 442.2534 388.3115)" class="st3 st4 st8 st7">1</text>
	<text transform="matrix(1 0 0 1 405.3003 50.2578)" class="st3 st4 st8 st9">a</text>
	<text transform="matrix(0.583 0 0 0.583 429.2509 69.7656)" class="st3 st4 st8 st7">0</text>
	<text transform="matrix(1 0 0 1 828.7349 136.2041)" class="st3 st4 st5 st6">Σ</text>
</g>
</svg>
