<?xml version="1.0" encoding="utf-8"?>
<!-- Generator: Adobe Illustrator 23.0.1, SVG Export Plug-In . SVG Version: 6.00 Build 0)  -->
<svg version="1.1" id="Layer_1" xmlns="http://www.w3.org/2000/svg" xmlns:xlink="http://www.w3.org/1999/xlink" x="0px" y="0px"
	 viewBox="0 0 1052.5 523.6" style="enable-background:new 0 0 1052.5 523.6;" xml:space="preserve">
<style type="text/css">
	.st0{fill:none;stroke:#4D258F;stroke-width:6.5009;stroke-linecap:round;stroke-miterlimit:10;}
	.st1{display:none;fill:none;stroke:#4D258F;stroke-width:6.5009;stroke-linecap:round;stroke-miterlimit:10;}
	.st2{fill:none;stroke:#000000;stroke-width:6.5009;stroke-linecap:round;stroke-miterlimit:10;}
	.st3{fill:none;stroke:#8F253B;stroke-width:6.1777;stroke-miterlimit:10;}
	.st4{fill:none;stroke:#8F253B;stroke-width:6.1532;stroke-miterlimit:10;}
	.st5{display:none;fill:#4D258F;enable-background:new    ;}
	.st6{font-family:'PalatinoLinotype-Italic';}
	.st7{font-size:58.5815px;}
	.st8{font-size:34.153px;}
	.st9{fill:#4D258F;}
	.st10{fill:none;stroke:#8F253B;stroke-width:6.3038;stroke-miterlimit:10;}
	.st11{font-size:64.2992px;}
	.st12{fill:none;stroke:#8F253B;stroke-width:6.7544;stroke-miterlimit:10;}
	.st13{font-size:68.8948px;}
	.st14{font-size:40.1657px;}
</style>
<line class="st0" x1="787.1" y1="107.7" x2="832.8" y2="107.7"/>
<line class="st0" x1="58.4" y1="107.8" x2="0" y2="107.8"/>
<path class="st0" d="M911.6,107.8"/>
<polyline class="st0" points="513.7,191.7 498,177.6 514.5,215 514.5,108.7 "/>
<polyline class="st0" points="215.9,107.8 638.2,107.8 600.8,91.3 614.9,107 "/>
<path class="st1" d="M213.2,314.3v93.5c0,13.6,11,24.5,24.5,24.5h219.9l-45.5-19.5l18.2,19.5"/>
<path class="st0" d="M650,421.6H533.8c-12.4,0-18.7-8.6-18.7-19.2v-74.2"/>
<line class="st0" x1="989.2" y1="107.3" x2="1052.5" y2="107.3"/>
<path class="st2" d="M863.3,210.6"/>
<polygon class="st3" points="351.1,484.4 351.1,347 221.7,421.5 "/>
<polygon class="st4" points="655.5,358.2 655.5,495.1 784.4,420.9 "/>
<path class="st2" d="M87.7,210.6"/>
<text transform="matrix(1 0 0 1 418.3022 368.8037)" class="st5 st6 st7">a</text>
<text transform="matrix(1 0 0 1 442.2529 388.3115)" class="st5 st6 st8">1</text>
<polygon class="st4" points="655.5,44.3 655.5,181.1 784.4,107 "/>
<text transform="matrix(1 0 0 1 745.6554 172.8461)" class="st9 st6 st7">a</text>
<text transform="matrix(1 0 0 1 769.6062 192.3539)" class="st9 st6 st8">0</text>
<text transform="matrix(1 0 0 1 745.6554 485.2976)" class="st9 st6 st7">a</text>
<text transform="matrix(1 0 0 1 769.6062 504.8054)" class="st9 st6 st8">1</text>
<text transform="matrix(1 0 0 1 204.749 484.4338)" class="st9 st6 st7">-b</text>
<text transform="matrix(1 0 0 1 245.6997 503.9417)" class="st9 st6 st8">1</text>
<g>
	<circle class="st10" cx="911.6" cy="107.8" r="74.8"/>
	<text transform="matrix(1 0 0 1 887.9153 128.6504)" class="st9 st6 st11">Σ</text>
</g>
<g>
	<circle class="st10" cx="136" cy="107.8" r="74.8"/>
	<text transform="matrix(1 0 0 1 112.3224 128.6504)" class="st9 st6 st11">Σ</text>
</g>
<path class="st0" d="M354.6,421.6h140.6c11,0,19.9-8.9,19.9-19.9v-73.5"/>
<g>
	<path class="st12" d="M597.7,325H431.3c-3.5,0-6.3-2.8-6.3-6.3v-85.4c0-3.5,2.8-6.3,6.3-6.3h166.4c3.5,0,6.3,2.8,6.3,6.3v85.4
		C604,322.2,601.2,325,597.7,325z"/>
	<text transform="matrix(1 0 0 1 483.7667 297.2148)" class="st9 st6 st13">z</text>
	<text transform="matrix(1 0 0 1 511.9347 274.2734)" class="st9 st6 st14">-1</text>
</g>
<path class="st0" d="M132.2,217.1l-12.7,9.9l16.6-34.6v211.5c0,9.8,7.9,17.7,17.7,17.7h66.7"/>
<path class="st0" d="M914.6,215.6l11.9,5.3l-14.8-28.6v214.3c0,8.2-6.7,14.9-14.9,14.9H779.4"/>
</svg>
